<svg width="66" height="74" viewBox="0 0 66 74" fill="none" xmlns="http://www.w3.org/2000/svg">
<path d="M22.2681 25.7083H14.4008C10.0603 25.7083 7.88853 25.7083 6.23071 26.5561C4.77246 27.3017 3.58772 28.4907 2.8447 29.9542C2 31.618 2 33.7976 2 38.1535V59.9313C2 64.2873 2 66.4641 2.8447 68.1279C3.58772 69.5914 4.77246 70.7824 6.23071 71.5281C7.88691 72.375 10.0562 72.375 14.3881 72.375H51.612C55.9439 72.375 58.11 72.375 59.7662 71.5281C61.2244 70.7824 62.4131 69.5914 63.1561 68.1279C64 66.4657 64 64.2919 64 59.9445V38.1407C64 33.7933 64 31.6163 63.1561 29.9542C62.4131 28.4907 61.2244 27.3017 59.7662 26.5561C58.1083 25.7083 55.9412 25.7083 51.6008 25.7083H43.7296M22.2681 25.7083H43.7296M22.2681 25.7083C21.7742 25.7083 21.375 25.3065 21.375 24.8109V14.0417C21.375 7.59835 26.5797 2.375 33 2.375C39.4203 2.375 44.625 7.59835 44.625 14.0417V24.8109C44.625 25.3065 44.2235 25.7083 43.7296 25.7083" stroke="white" stroke-width="3" stroke-linecap="round" stroke-linejoin="round"/>
</svg>
