<svg width="11" height="12" viewBox="0 0 11 12" fill="none" xmlns="http://www.w3.org/2000/svg">
<path d="M5.41667 0.248047C2.4375 0.248047 0 2.68555 0 5.66471C0 8.64388 2.4375 11.0814 5.41667 11.0814C8.39583 11.0814 10.8333 8.64388 10.8333 5.66471C10.8333 2.68555 8.39583 0.248047 5.41667 0.248047ZM7.3125 6.74805C7.15 7.01888 6.825 7.07305 6.55417 6.96471L5.14583 6.15221C4.98333 6.04388 4.875 5.88138 4.875 5.66471V2.95638C4.875 2.63138 5.09167 2.41471 5.41667 2.41471C5.74167 2.41471 5.95833 2.63138 5.95833 2.95638V5.33971L7.09583 5.98971C7.36667 6.15221 7.42083 6.47721 7.3125 6.74805Z" fill="url(#paint0_linear_433_3851)"/>
<defs>
<linearGradient id="paint0_linear_433_3851" x1="5.41667" y1="0.248047" x2="5.41667" y2="11.0814" gradientUnits="userSpaceOnUse">
<stop stop-color="#4C600E"/>
<stop offset="1" stop-color="#9BC31A"/>
</linearGradient>
</defs>
</svg>
